<mxfile host="app.diagrams.net" modified="2024-05-20T09:02:55.684Z" agent="Mozilla/5.0 (Windows NT 10.0; Win64; x64) AppleWebKit/537.36 (KHTML, like Gecko) Chrome/124.0.0.0 Safari/537.36" etag="DqGBH13Hv13i1F7tswge" version="24.4.4" type="github">
  <diagram name="第 1 页" id="hXHe-aeKjsVY7c4IZT_w">
    <mxGraphModel dx="1434" dy="780" grid="1" gridSize="10" guides="1" tooltips="1" connect="1" arrows="1" fold="1" page="1" pageScale="1" pageWidth="827" pageHeight="1169" math="0" shadow="0">
      <root>
        <mxCell id="0" />
        <mxCell id="1" parent="0" />
        <mxCell id="LLaaowUGUB9SvvkGT71U-1" value="" style="rounded=0;whiteSpace=wrap;html=1;fillColor=#f5f5f5;fontColor=#333333;strokeColor=none;" vertex="1" parent="1">
          <mxGeometry x="140" y="130" width="330" height="370" as="geometry" />
        </mxCell>
        <mxCell id="LLaaowUGUB9SvvkGT71U-2" value="" style="rounded=0;whiteSpace=wrap;html=1;fillColor=#f8cecc;strokeColor=none;" vertex="1" parent="1">
          <mxGeometry x="140" y="380" width="330" height="120" as="geometry" />
        </mxCell>
        <mxCell id="LLaaowUGUB9SvvkGT71U-3" value="B&lt;a href=&quot;https://github.com/Budibase/budibase&quot; class=&quot;Link__StyledLink-sc-14289xe-0 dheQRw&quot; style=&quot;box-sizing: border-box; text-decoration-line: none; text-align: start; text-wrap: nowrap;&quot;&gt;&lt;span class=&quot;Text-sc-17v1xeu-0 qaOIC search-match&quot; style=&quot;box-sizing: border-box; overflow: hidden; text-overflow: ellipsis;&quot;&gt;&lt;span style=&quot;box-sizing: border-box;&quot;&gt;&lt;font face=&quot;Helvetica&quot; style=&quot;font-size: 14px;&quot; color=&quot;#4d4d4d&quot;&gt;udibase&lt;/font&gt;&lt;/span&gt;&lt;/span&gt;&lt;/a&gt;" style="ellipse;whiteSpace=wrap;html=1;aspect=fixed;strokeColor=none;fillColor=#d5e8d4;gradientColor=#97d077;" vertex="1" parent="1">
          <mxGeometry x="190" y="290" width="80" height="80" as="geometry" />
        </mxCell>
        <mxCell id="LLaaowUGUB9SvvkGT71U-4" value="&lt;font color=&quot;#4d4d4d&quot; style=&quot;font-size: 14px;&quot; face=&quot;Helvetica&quot;&gt;&lt;span style=&quot;vertical-align: baseline;&quot;&gt;Lowcode&lt;/span&gt;&lt;span style=&quot;vertical-align: baseline;&quot;&gt;-engine&lt;/span&gt;&lt;/font&gt;" style="ellipse;whiteSpace=wrap;html=1;aspect=fixed;strokeColor=none;fillColor=#d5e8d4;gradientColor=#97d077;" vertex="1" parent="1">
          <mxGeometry x="300" y="290" width="80" height="80" as="geometry" />
        </mxCell>
        <mxCell id="LLaaowUGUB9SvvkGT71U-5" value="&lt;span style=&quot;vertical-align: baseline;&quot;&gt;&lt;font color=&quot;#4d4d4d&quot; style=&quot;font-size: 14px;&quot; face=&quot;Helvetica&quot;&gt;Amis&lt;/font&gt;&lt;/span&gt;" style="ellipse;whiteSpace=wrap;html=1;aspect=fixed;strokeColor=none;fillColor=#d5e8d4;gradientColor=#97d077;" vertex="1" parent="1">
          <mxGeometry x="367" y="210" width="80" height="80" as="geometry" />
        </mxCell>
        <mxCell id="LLaaowUGUB9SvvkGT71U-6" value="&lt;h1 style=&quot;box-sizing: border-box; outline: 0px; margin: 0px; padding: 0px; overflow-wrap: break-word; word-break: break-all; font-variant-ligatures: common-ligatures; text-align: start;&quot; id=&quot;articleContentId&quot; class=&quot;title-article&quot;&gt;&lt;font color=&quot;#4d4d4d&quot; face=&quot;Helvetica&quot; style=&quot;font-weight: normal; font-size: 14px;&quot;&gt;Appsmith&lt;/font&gt;&lt;/h1&gt;" style="ellipse;whiteSpace=wrap;html=1;aspect=fixed;fillColor=#d5e8d4;strokeColor=none;gradientColor=#97d077;" vertex="1" parent="1">
          <mxGeometry x="160" y="200" width="80" height="80" as="geometry" />
        </mxCell>
        <mxCell id="LLaaowUGUB9SvvkGT71U-7" value="&lt;font color=&quot;#333333&quot; style=&quot;font-size: 18px;&quot;&gt;&lt;b&gt;开源项目&lt;/b&gt;&lt;/font&gt;" style="rounded=0;whiteSpace=wrap;html=1;fillColor=#f8cecc;strokeColor=none;" vertex="1" parent="1">
          <mxGeometry x="140" y="130" width="330" height="60" as="geometry" />
        </mxCell>
        <mxCell id="LLaaowUGUB9SvvkGT71U-8" value="&lt;h1 style=&quot;margin-top: 0px;&quot;&gt;&lt;font style=&quot;font-size: 14px;&quot;&gt;面临问题&lt;/font&gt;&lt;/h1&gt;&lt;p&gt;1. 无法直接用于解决实际业务问题&lt;/p&gt;&lt;p&gt;2. 需要基于中南院技术背景进行二次开发&lt;/p&gt;" style="text;html=1;whiteSpace=wrap;overflow=hidden;rounded=0;" vertex="1" parent="1">
          <mxGeometry x="150" y="380" width="310" height="120" as="geometry" />
        </mxCell>
        <mxCell id="LLaaowUGUB9SvvkGT71U-9" value="&lt;span style=&quot;vertical-align: baseline;&quot;&gt;&lt;font color=&quot;#4d4d4d&quot; style=&quot;font-size: 14px;&quot; face=&quot;Helvetica&quot;&gt;Yao&lt;/font&gt;&lt;/span&gt;" style="ellipse;whiteSpace=wrap;html=1;aspect=fixed;strokeColor=none;fillColor=#d5e8d4;gradientColor=#97d077;" vertex="1" parent="1">
          <mxGeometry x="265" y="200" width="80" height="80" as="geometry" />
        </mxCell>
      </root>
    </mxGraphModel>
  </diagram>
</mxfile>
